HIERARCHY
ROOT Hips
{
	OFFSET 0.000000 0.000000 0.000000
	CHANNELS 6 Xposition Yposition Zposition Xrotation Yrotation Zrotation
	JOINT LeftUpLeg_virtual
	{
		OFFSET 0.000000 0.000000 0.000000
		CHANNELS 3 Xrotation Yrotation Zrotation
		JOINT LeftUpLeg
		{
			OFFSET 15.427100 -6.655098 0.678600
			CHANNELS 3 Xrotation Yrotation Zrotation
			JOINT LeftLeg
			{
				OFFSET 4.081073 -39.591068 13.024000
				CHANNELS 3 Xrotation Yrotation Zrotation
				JOINT LeftFoot
				{
					OFFSET -4.081074 -37.707932 -15.979700
					CHANNELS 3 Xrotation Yrotation Zrotation
					JOINT LeftToeBase
					{
						OFFSET 5.346399 -15.068900 20.645000
						CHANNELS 3 Xrotation Yrotation Zrotation
						JOINT LeftToe_End
						{
							OFFSET 2.754700 0.931300 11.300900
							CHANNELS 3 Xrotation Yrotation Zrotation
							End Site
							{
								OFFSET 0 0 0
							}
						}
					}
				}
			}
		}
	}
	JOINT RightUpLeg_virtual
	{
		OFFSET 0.000000 0.000000 0.000000
		CHANNELS 3 Xrotation Yrotation Zrotation
		JOINT RightUpLeg
		{
			OFFSET -15.569500 -6.655098 0.678600
			CHANNELS 3 Xrotation Yrotation Zrotation
			JOINT RightLeg
			{
				OFFSET -4.081825 -39.591045 13.023800
				CHANNELS 3 Xrotation Yrotation Zrotation
				JOINT RightFoot
				{
					OFFSET 4.081824 -37.707954 -15.979600
					CHANNELS 3 Xrotation Yrotation Zrotation
					JOINT RightToeBase
					{
						OFFSET -5.346400 -15.068900 20.645000
						CHANNELS 3 Xrotation Yrotation Zrotation
						JOINT RightToe_End
						{
							OFFSET -2.754700 0.931300 11.300900
							CHANNELS 3 Xrotation Yrotation Zrotation
							End Site
							{
								OFFSET 0 0 0
							}
						}
					}
				}
			}
		}
	}
	JOINT Spine_virtual
	{
		OFFSET 0.000000 0.000000 0.000000
		CHANNELS 3 Xrotation Yrotation Zrotation
		JOINT Spine
		{
			OFFSET -0.279200 12.230698 -2.892100
			CHANNELS 3 Xrotation Yrotation Zrotation
			JOINT Spine1
			{
				OFFSET -0.232667 10.192268 -1.242267
				CHANNELS 3 Xrotation Yrotation Zrotation
				JOINT Spine1_split
				{
					OFFSET -0.232667 10.192268 -1.242267
					CHANNELS 3 Xrotation Yrotation Zrotation
					JOINT Spine2
					{
						OFFSET -0.232667 10.192268 -1.242267
						CHANNELS 3 Xrotation Yrotation Zrotation
						JOINT Neck_virtual
						{
							OFFSET 0.000000 0.000000 0.000000
							CHANNELS 3 Xrotation Yrotation Zrotation
							JOINT Neck
							{
								OFFSET -0.418800 17.814194 8.416900
								CHANNELS 3 Xrotation Yrotation Zrotation
								JOINT Head
								{
									OFFSET 0.000000 7.031097 3.806800
									CHANNELS 3 Xrotation Yrotation Zrotation
									JOINT HeadTop_End
									{
										OFFSET 0.000000 24.646606 12.978600
										CHANNELS 3 Xrotation Yrotation Zrotation
										End Site
										{
											OFFSET 0 0 0
										}
									}
								}
							}
						}
						JOINT LeftShoulder_virtual
						{
							OFFSET 0.000000 0.000000 0.000000
							CHANNELS 3 Xrotation Yrotation Zrotation
							JOINT LeftShoulder
							{
								OFFSET 8.476499 7.247704 -3.868750
								CHANNELS 3 Xrotation Yrotation Zrotation
								JOINT LeftShoulder_split
								{
									OFFSET 8.476499 7.247704 -3.868750
									CHANNELS 3 Xrotation Yrotation Zrotation
									JOINT LeftArm
									{
										OFFSET 9.308998 -2.777710 0.208600
										CHANNELS 3 Xrotation Yrotation Zrotation
										JOINT LeftForeArm
										{
											OFFSET 29.972298 0.000000 0.000000
											CHANNELS 3 Xrotation Yrotation Zrotation
											JOINT LeftHand
											{
												OFFSET 26.026505 0.000000 0.000000
												CHANNELS 3 Xrotation Yrotation Zrotation
												End Site
												{
													OFFSET 0 0 0
												}
											}
										}
									}
								}
							}
						}
						JOINT RightShoulder_virtual
						{
							OFFSET 0.000000 0.000000 0.000000
							CHANNELS 3 Xrotation Yrotation Zrotation
							JOINT RightShoulder
							{
								OFFSET -7.570500 7.247704 -3.868750
								CHANNELS 3 Xrotation Yrotation Zrotation
								JOINT RightShoulder_split
								{
									OFFSET -7.570500 7.247704 -3.868750
									CHANNELS 3 Xrotation Yrotation Zrotation
									JOINT RightArm
									{
										OFFSET -9.308998 -2.777710 0.208500
										CHANNELS 3 Xrotation Yrotation Zrotation
										JOINT RightForeArm
										{
											OFFSET -29.972300 0.000000 0.000000
											CHANNELS 3 Xrotation Yrotation Zrotation
											JOINT RightHand
											{
												OFFSET -26.026505 0.000000 0.000000
												CHANNELS 3 Xrotation Yrotation Zrotation
												End Site
												{
													OFFSET 0 0 0
												}
											}
										}
									}
								}
							}
						}
					}
				}
			}
		}
	}
}
MOTION
Frames: 9
Frame Time: 0.03333333
-1.656232 60.568329 -86.035019 0.000000 0.000000 0.000000 39.604681 -70.061519 29.315992 -66.936988 -25.341364 33.700228 38.743043 -9.627081 7.314282 17.916209 -3.675918 -25.675946 -4.499471 0.880618 1.865953 0.000000 0.000000 0.000000 40.640049 -70.731650 30.784499 -0.815138 -2.088182 -42.512542 29.622114 1.930413 -0.945229 2.600806 -29.981641 41.385588 -1.843666 0.956484 -1.621584 0.000000 0.000000 0.000000 38.534722 -66.779135 28.056964 1.597991 11.086075 -3.330546 -2.685869 4.989061 0.303711 0.972190 -2.999591 1.410725 0.000000 0.000000 0.000000 -1.388158 3.094223 0.679367 10.532770 5.158586 -6.209466 5.032547 18.385040 9.652237 0.000000 0.000000 0.000000 -2.137589 3.572425 0.679278 3.330538 3.562576 -13.151119 3.751411 0.646931 1.755092 -51.206580 -31.765038 -49.825530 -2.852527 -77.334175 -0.891201 0.000000 0.000000 0.000000 -2.417252 3.231168 0.708692 -13.680906 -1.214786 -1.022750 -1.469844 -1.658059 -1.299702 -106.081403 35.372969 120.698595 -2.986726 28.856853 2.701140 0.000000 0.000000 0.000000 
-0.965376 62.208206 -92.273621 0.000000 0.000000 0.000000 42.936427 -71.027677 32.356723 -66.272772 -21.667167 33.344041 35.299415 -7.683914 7.134770 19.653851 -1.558261 -22.140810 -5.143197 0.759302 0.674744 0.000000 0.000000 0.000000 40.645086 -71.449803 31.052612 -5.758059 -3.117571 -37.250626 38.674539 1.865010 1.190625 -5.767929 -29.921396 37.188614 0.580644 0.950044 -2.008890 0.000000 0.000000 0.000000 39.760246 -67.714427 29.255838 1.573887 10.018719 -3.006920 -2.733078 4.379347 0.487984 0.712127 -1.972782 1.212195 0.000000 0.000000 0.000000 -1.340473 2.451725 0.919924 10.664714 5.559228 -6.264061 4.644568 19.336257 8.980476 0.000000 0.000000 0.000000 -2.167158 2.958910 0.937148 3.304662 3.537795 -13.003107 4.749468 1.015773 1.562943 -50.029537 -31.656752 -49.786191 -2.714029 -78.333855 -0.732362 0.000000 0.000000 0.000000 -2.478411 2.550919 0.950376 -13.870091 -1.731888 -1.777828 -0.748894 -1.133833 -1.735828 -105.789166 35.243503 120.709264 -3.275808 28.988088 2.924705 0.000000 0.000000 0.000000 
-0.328799 64.282608 -97.893936 0.000000 0.000000 0.000000 45.177996 -71.351277 34.252746 -68.357155 -17.900860 31.811446 35.109822 -5.984524 5.953689 20.585435 -0.480872 -17.516107 -5.263237 0.700538 -0.492940 0.000000 0.000000 0.000000 40.819830 -71.812008 31.387417 -9.277820 -5.388829 -30.792754 45.187862 2.037000 3.099509 -13.918155 -29.468950 33.303190 1.638107 0.858289 -1.762769 0.000000 0.000000 0.000000 41.457855 -68.317014 30.344485 1.437260 8.929864 -2.569289 -2.735644 3.601609 0.708634 0.649703 -0.840553 0.871930 0.000000 0.000000 0.000000 -1.365144 1.613505 1.182233 10.742811 5.881828 -6.276274 3.944239 20.390346 8.270019 0.000000 0.000000 0.000000 -2.200951 2.187873 1.210613 3.284382 3.422042 -12.658898 5.519331 1.771173 1.353349 -49.204020 -31.876278 -49.648184 -1.875509 -78.841953 0.010503 0.000000 0.000000 0.000000 -2.525298 1.737057 1.212194 -14.107130 -2.312874 -2.574926 -0.194602 -0.690080 -2.235642 -106.111681 35.162589 121.223632 -3.575060 27.909738 3.060163 0.000000 0.000000 0.000000 
0.045018 66.542709 -102.505585 0.000000 0.000000 0.000000 45.875567 -70.916720 34.685545 -71.993670 -14.540923 29.483905 37.284066 -4.836941 4.099218 20.722111 -0.248381 -12.935410 -4.596955 0.674142 -1.255002 0.000000 0.000000 0.000000 40.594034 -71.510564 31.255485 -10.962221 -8.253175 -24.771247 47.812834 2.210900 4.465324 -19.957131 -28.640974 30.807681 0.805603 0.683994 -1.013215 0.000000 0.000000 0.000000 42.989491 -68.635437 31.068277 1.205679 7.960863 -2.138169 -2.685903 2.874102 0.887014 0.610196 0.326850 0.589199 0.000000 0.000000 0.000000 -1.465248 0.816405 1.353820 10.738703 6.070044 -6.265741 3.072441 21.333929 7.751457 0.000000 0.000000 0.000000 -2.240613 1.457743 1.405895 3.276570 3.325633 -12.149578 6.019440 2.912437 1.138697 -48.819477 -32.153047 -49.378409 -0.738350 -78.963776 0.970846 0.000000 0.000000 0.000000 -2.543899 0.997038 1.394802 -14.360196 -2.969482 -3.258818 0.192112 -0.440564 -2.554480 -106.913197 35.268966 122.318456 -3.750027 26.291396 3.048247 0.000000 0.000000 0.000000 
0.301969 68.772575 -105.825516 0.000000 0.000000 0.000000 45.081619 -69.997636 33.789649 -75.812900 -12.006966 26.726001 40.543293 -4.451449 2.237093 20.553629 -0.771990 -9.933293 -3.753235 0.639432 -1.297528 0.000000 0.000000 0.000000 40.621164 -70.881381 31.276843 -11.024895 -10.941149 -19.960277 46.905938 1.738031 5.307546 -24.296627 -27.973482 28.634335 0.024464 0.437964 -0.179940 0.000000 0.000000 0.000000 44.290423 -68.960841 31.773804 0.965157 7.191887 -1.795706 -2.600862 2.365189 0.986941 0.669481 1.422936 0.641782 0.000000 0.000000 0.000000 -1.623679 0.252076 1.379171 10.629992 6.142980 -6.222912 2.230262 21.987805 7.512618 0.000000 0.000000 0.000000 -2.296731 0.932295 1.481341 3.265092 3.254262 -11.627951 6.238273 4.186148 0.998132 -48.723117 -32.293712 -48.927223 0.043390 -78.829057 1.548236 0.000000 0.000000 0.000000 -2.540434 0.492936 1.460678 -14.571198 -3.673118 -3.646913 0.380701 -0.334489 -2.576529 -107.783083 35.601391 123.840947 -3.715502 24.892582 2.889060 0.000000 0.000000 0.000000 
0.336412 70.482086 -107.907242 0.000000 0.000000 0.000000 43.573742 -68.933418 32.397032 -78.902093 -10.369734 24.122090 43.755691 -4.452102 0.853967 20.377588 -1.453908 -8.594660 -3.255554 0.604995 -0.857712 0.000000 0.000000 0.000000 41.192710 -70.019985 31.635131 -10.394553 -13.012864 -16.916970 43.787219 0.710441 5.926087 -27.347931 -27.544331 26.478352 0.530529 0.258565 0.369684 0.000000 0.000000 0.000000 44.680232 -69.293137 32.107288 0.811628 6.687223 -1.602240 -2.524241 2.118694 1.012912 0.875551 2.105174 0.745816 0.000000 0.000000 0.000000 -1.805812 -0.002016 1.290570 10.520053 6.091590 -6.107955 1.589783 22.259848 7.575898 0.000000 0.000000 0.000000 -2.387736 0.668684 1.450935 3.242695 3.199631 -11.173826 6.227896 5.206060 0.962608 -48.692166 -32.248059 -48.324039 0.139509 -78.614999 1.454203 0.000000 0.000000 0.000000 -2.502082 0.278259 1.437860 -14.704962 -4.363923 -3.753471 0.357908 -0.495147 -2.264182 -108.442394 36.094531 125.408612 -3.471580 24.171254 2.624525 0.000000 0.000000 0.000000 
0.203547 71.618790 -108.896988 0.000000 0.000000 0.000000 42.392450 -68.171900 31.470465 -80.983873 -9.600577 22.147599 46.347997 -4.473605 0.213494 20.585191 -2.053725 -8.844829 -2.886169 0.558558 -0.378499 0.000000 0.000000 0.000000 41.759339 -69.010811 31.832687 -9.871284 -14.401580 -15.661277 41.162480 -0.377886 6.465875 -29.410723 -27.286884 24.461564 1.959960 0.183264 0.440319 0.000000 0.000000 0.000000 43.247528 -69.584451 31.283772 0.928896 6.343715 -1.595552 -2.467820 2.073287 0.987315 0.905294 2.045807 1.189131 0.000000 0.000000 0.000000 -1.933749 0.003402 1.184344 10.543227 5.980887 -5.867065 1.235905 22.034271 7.912152 0.000000 0.000000 0.000000 -2.472206 0.631173 1.362904 3.232125 3.242928 -10.876244 6.011874 5.736771 0.994332 -48.601280 -32.096971 -47.697694 -0.390906 -78.387458 0.762731 0.000000 0.000000 0.000000 -2.432847 0.306520 1.388831 -14.765486 -4.943220 -3.649658 0.178217 -0.824378 -1.802894 -108.774219 36.586673 126.540893 -3.127235 24.105990 2.327208 0.000000 0.000000 0.000000 
0.052345 72.190300 -109.339035 0.000000 0.000000 0.000000 41.879745 -67.990066 31.233775 -81.944375 -9.523483 21.151112 48.096307 -4.451462 0.148182 21.151209 -2.577040 -9.980379 -2.791775 0.473794 -0.015713 0.000000 0.000000 0.000000 41.837470 -68.339178 31.670037 -9.795225 -14.831023 -15.598643 40.644373 -0.847217 6.847692 -30.400615 -27.009688 23.043194 2.861822 0.220340 0.103592 0.000000 0.000000 0.000000 40.779221 -69.664070 29.658976 1.310371 6.108198 -1.645374 -2.460507 2.104433 0.963000 1.065219 1.275133 1.449894 0.000000 0.000000 0.000000 -1.971563 0.144793 1.148362 10.787754 5.859923 -5.499004 1.202087 21.327464 8.381453 0.000000 0.000000 0.000000 -2.518953 0.708234 1.266045 3.239467 3.256714 -10.711708 5.642708 5.769588 1.064907 -48.496423 -31.852505 -47.157060 -1.302196 -78.123594 -0.274293 0.000000 0.000000 0.000000 -2.358010 0.468739 1.386144 -14.754334 -5.338932 -3.455104 -0.079160 -1.052373 -1.437235 -108.836121 36.972060 126.984418 -2.804293 24.202570 2.086941 0.000000 0.000000 0.000000 
-0.171577 72.294739 -109.646332 0.000000 0.000000 0.000000 41.439280 -68.379674 31.163500 -82.022826 -9.861270 21.024337 48.911575 -4.100531 0.507410 21.621526 -2.771868 -10.661953 -2.729137 0.363330 0.000073 0.000000 0.000000 0.000000 41.203103 -68.201836 31.045761 -10.135603 -14.201990 -16.074994 41.985057 -0.432401 7.105623 -30.421225 -26.556185 22.586140 2.965693 0.327170 -0.184702 0.000000 0.000000 0.000000 37.735484 -69.404571 27.282357 1.841070 5.984551 -1.606961 -2.532709 2.120474 0.981042 1.362145 0.261009 1.236698 0.000000 0.000000 0.000000 -1.935119 0.281085 1.203654 11.252468 5.804275 -5.055606 1.425876 20.301151 8.852758 0.000000 0.000000 0.000000 -2.538582 0.779169 1.198969 3.266480 3.223101 -10.628766 5.346662 5.551708 1.124069 -48.439073 -31.523495 -46.771660 -2.158338 -77.838011 -1.222030 0.000000 0.000000 0.000000 -2.312632 0.636662 1.447777 -14.694739 -5.578614 -3.322929 -0.347143 -1.200915 -1.252982 -108.890434 37.217619 126.829086 -2.609702 24.147068 2.007514 0.000000 0.000000 0.000000 
